<svg width="145" height="66" viewBox="0 0 145 66" fill="none" xmlns="http://www.w3.org/2000/svg">
  <g id="Logo">
    <path id="Vector" d="M23.7493 46.0457C27.8306 46.0457 31.6921 45.0879 35.1986 43.1201C37.3992 44.5788 40.2344 46.0457 44.4593 46.0457C48.6842 46.0457 52.6217 43.9658 55.3809 42.1248C55.4261 43.1471 55.7586 44.0303 56.3847 44.6848C57.2408 45.5762 58.5712 46.0457 60.2463 46.0457C63.1594 46.0457 66.8177 44.903 71.1227 42.4511C72.2949 44.7721 74.857 46.0457 78.0329 46.0457C81.4427 46.0457 85.5261 44.9902 89.7818 42.8522C90.8021 44.8842 93.0172 46.0457 95.6449 46.0457C99.02 46.0457 102.469 44.853 106.757 42.208C106.733 42.4178 106.718 42.6006 106.718 42.7836C106.718 43.6292 106.944 44.3398 107.386 44.8863C108.004 45.6448 109.03 46.0478 110.348 46.0478C111.218 46.0478 112.302 45.9024 113.339 45.5055C110.59 48.3481 107.999 51.6663 106 54.7749H111.245C116.782 46.8415 125.314 39.1597 128.601 35.8456L125.38 33.3106C121.292 37.3977 115.844 42.0272 112.38 42.0272C111.816 42.0272 111.574 41.7841 111.559 41.4205C111.514 40.3005 112.97 38.3556 114.411 36.5873L111.038 33.9319C106.341 38.4804 100.313 42.1788 96.889 42.1788C95.3554 42.1788 94.37 41.5493 93.8568 40.5498C105.349 33.1028 110.12 25.9861 110.12 21.8243C110.12 19.9874 108.882 18.8176 106.784 18.8176C103.382 18.8176 99.4469 21.2757 95.9344 25.0553C92.4383 28.8266 89.6791 34.123 89.1762 39.0538C84.8403 41.3519 81.1944 42.1892 79.3283 42.1892C76.9366 42.1892 75.5304 41.5472 74.9207 40.2154V40.2091C86.7393 32.3818 94.8669 22.1505 94.8669 17.3797C94.8669 15.4349 93.6063 14.3294 91.4078 14.3294C83.623 14.3294 70.7963 28.8869 70.3755 38.4034V38.4325C66.5714 40.8054 63.3421 42.1769 61.244 42.1769C60.5583 42.1769 59.7597 41.9877 59.7597 41.0298C59.7597 39.7685 61.4514 37.5183 63.2826 35.3885L63.4344 35.2076L60.197 32.6478L60.0513 32.7912C55.9024 37.0944 50.5935 42.1706 45.1162 42.1706C42.9114 42.1706 41.0658 41.5119 39.0929 40.4335C42.3448 37.7656 45.5966 34.067 49.5547 28.4899C59.7269 26.4703 67.0087 20.3739 71.0385 16.2763C73.5985 13.6749 77.532 8.69015 77.532 4.05655C77.532 1.80416 76.1031 0.121094 73.3687 0.121094C64.1284 0.121094 53.3896 15.3352 46.3809 25.1301C45.0362 25.3171 43.6669 25.4501 42.3099 25.4501C34.3692 25.4501 30.6288 22.0673 30.6288 18.695C30.6288 13.5669 37.9187 8.32029 46.6723 7.29176C46.1303 6.0596 45.609 5.02483 45.0218 3.68046C36.1634 4.60717 26.0342 10.9072 26.0342 19.0317C26.0342 21.0846 26.7056 22.994 28.1241 24.6252C30.7519 27.636 35.5639 29.3585 41.3307 29.3585C41.965 29.3585 42.6137 29.3398 43.2747 29.3003C40.2631 33.1777 37.7133 35.9225 35.2806 37.8839C32.7186 36.0056 28.6332 34.1979 24.3961 34.1979C19.4136 34.1979 15.6875 36.6477 15.6875 40.2652C15.6875 44.743 20.6638 46.0437 23.7493 46.0437V46.0457ZM93.4852 36.5624C95.2959 30.4474 102.783 22.9005 105.115 22.9005C105.347 22.9005 105.468 23.0793 105.468 23.339C105.468 23.5239 105.403 23.7546 105.376 23.8335C104.608 26.3332 100.724 30.8463 95.6429 34.9625C94.9818 35.4903 94.2756 36.041 93.6208 36.5147L93.4873 36.5854V36.5624H93.4852ZM89.8105 18.402C90.0773 18.402 90.1924 18.5931 90.2046 18.8072C90.2087 18.9049 90.1821 19.0108 90.1595 19.1147C89.3671 22.352 81.9293 30.2333 74.855 35.6462C77.2014 28.0911 87.5728 18.402 89.8105 18.402ZM63.4427 10.822C67.3659 6.84502 70.279 4.77964 71.8146 4.77964C72.2149 4.77964 72.531 5.04976 72.531 5.49857C72.531 7.45384 69.8746 11.4038 66.557 14.7325C62.9685 18.3314 58.1544 21.7743 53.0836 23.42C56.8322 18.1548 60.39 13.9222 63.4427 10.822ZM24.0655 37.9463C26.6481 37.9463 29.5366 39.0933 31.4068 40.4065C29.1136 41.5514 26.7179 42.2745 24.082 42.2745C21.9079 42.2745 19.9618 41.6428 19.9618 40.2028C19.9618 38.9436 21.563 37.9484 24.0655 37.9484V37.9463ZM65.935 26.2979C67.4645 26.2979 68.6982 27.555 68.6982 29.1008C68.6982 30.6468 67.4645 31.9039 65.935 31.9039C64.4056 31.9039 63.1635 30.6489 63.1635 29.1008C63.1635 27.5529 64.4014 26.2979 65.935 26.2979Z" fill="#D31710" />
    <path id="Vector_2" d="M3.46944 58.5506H5.76256L9.23202 65.6465H6.96969L6.41745 64.4891H2.66675L2.12478 65.6465H0L3.46944 58.5506ZM4.54312 60.5433L3.33395 63.0887H5.76256L4.56366 60.5433H4.54312ZM12.5783 58.5818H15.6207L17.768 63.0575H17.7988L19.936 58.5818H22.9887V65.6465H20.905V60.6077H20.8844L18.4558 65.6465H16.9243L14.4957 60.6077H14.4752V65.6465H12.5783V58.5818ZM24.7091 58.5818H31.6603V60.1631H26.7619V61.3412H30.4715V62.806H26.7619V64.0694H31.6603V65.6506H24.7091V58.586V58.5818ZM33.0973 58.5818H36.6509C37.3653 58.5818 37.9976 58.6648 38.5416 58.8311C39.0877 58.9973 39.5394 59.2301 39.9006 59.5313C40.262 59.8326 40.5331 60.1984 40.7137 60.6284C40.8943 61.0586 40.9846 61.5407 40.9846 62.0704C40.9846 62.6004 40.8943 63.0969 40.7137 63.5396C40.5331 63.9821 40.262 64.3582 39.9006 64.6698C39.5394 64.9816 39.0857 65.2205 38.5416 65.3909C37.9955 65.5613 37.3653 65.6465 36.6509 65.6465H33.0973V58.5818ZM35.1913 60.2357V63.9905H36.5873C37.3304 63.9905 37.899 63.8263 38.2953 63.498C38.6915 63.1696 38.8886 62.7083 38.8886 62.1141C38.8886 61.5198 38.6915 61.0586 38.2953 60.7303C37.899 60.4019 37.3304 60.2378 36.5873 60.2378H35.1913V60.2357ZM42.393 58.5818H44.4869V65.6465H42.393V58.5818ZM50.3234 58.4114C51.0112 58.4114 51.6291 58.4965 52.1793 58.6669C52.7273 58.8373 53.255 59.0638 53.7621 59.3464L52.9389 60.8737C52.5775 60.6763 52.1875 60.5038 51.7708 60.3584C51.354 60.2129 50.9023 60.1401 50.4157 60.1401C49.6521 60.1401 49.0547 60.3251 48.6236 60.6928C48.1924 61.0607 47.9769 61.5302 47.9769 62.1037C47.9769 62.6772 48.2048 63.178 48.6606 63.5415C49.1163 63.9052 49.726 64.088 50.4897 64.088C50.9701 64.088 51.4094 64.0133 51.8138 63.8657C52.2163 63.7161 52.5919 63.5436 52.9389 63.3463L53.721 64.8735C53.2488 65.1416 52.7335 65.366 52.1793 65.5467C51.6229 65.7276 51.0009 65.8169 50.3132 65.8169C49.6254 65.8169 49.0075 65.7255 48.4594 65.5404C47.9112 65.3576 47.4473 65.1 47.0675 64.7716C46.6877 64.4433 46.3982 64.0528 46.197 63.5998C45.9958 63.1468 45.8953 62.6522 45.8953 62.1141C45.8953 61.576 45.9978 61.1021 46.2032 60.6493C46.4084 60.1963 46.702 59.8056 47.0839 59.4773C47.4657 59.149 47.9317 58.8892 48.4798 58.6981C49.028 58.5069 49.6439 58.4114 50.3254 58.4114H50.3234ZM55.0944 58.5818H57.1884V65.6465H55.0944V58.5818ZM58.9826 58.5818H61.0664L64.9628 62.8455H64.9834V58.5818H66.9213V65.6465H64.8479L60.9391 61.2767H60.9185V65.6465H58.9807V58.5818H58.9826ZM68.6416 58.5818H75.5928V60.1631H70.6946V61.3412H74.4043V62.806H70.6946V64.0694H75.5928V65.6506H68.6416V58.586V58.5818ZM83.4083 58.4114C84.0962 58.4114 84.714 58.4965 85.2643 58.6669C85.8124 58.8373 86.34 59.0638 86.847 59.3464L86.0238 60.8737C85.6625 60.6763 85.2725 60.5038 84.8557 60.3584C84.439 60.2129 83.9873 60.1401 83.5007 60.1401C82.737 60.1401 82.1396 60.3251 81.7086 60.6928C81.2774 61.0607 81.0619 61.5302 81.0619 62.1037C81.0619 62.6772 81.2898 63.178 81.7456 63.5415C82.2012 63.9052 82.811 64.088 83.5747 64.088C84.0551 64.088 84.4944 64.0133 84.8988 63.8657C85.3012 63.7161 85.6769 63.5436 86.0238 63.3463L86.8059 64.8735C86.3338 65.1416 85.8185 65.366 85.2643 65.5467C84.7078 65.7276 84.0859 65.8169 83.3982 65.8169C82.7104 65.8169 82.0925 65.7255 81.5443 65.5404C80.9962 65.3576 80.5322 65.1 80.1525 64.7716C79.7727 64.4433 79.4832 64.0528 79.282 63.5998C79.0809 63.1468 78.9803 62.6522 78.9803 62.1141C78.9803 61.576 79.0828 61.1021 79.2882 60.6493C79.4935 60.1963 79.787 59.8056 80.1688 59.4773C80.5507 59.149 81.0168 58.8892 81.5648 58.6981C82.113 58.5069 82.7289 58.4114 83.4104 58.4114H83.4083ZM91.7247 58.3906C92.3715 58.3906 92.9606 58.4799 93.4903 58.6607C94.022 58.8415 94.4757 59.095 94.8493 59.4192C95.225 59.7454 95.5145 60.1359 95.7198 60.5973C95.9251 61.0565 96.0277 61.5635 96.0277 62.1141C96.0277 62.6648 95.9251 63.1717 95.7198 63.631C95.5145 64.0901 95.225 64.4828 94.8493 64.8091C94.4737 65.1353 94.02 65.3867 93.4903 65.5674C92.9585 65.7483 92.3694 65.8376 91.7247 65.8376C91.0802 65.8376 90.5013 65.7483 89.9737 65.5674C89.446 65.3867 88.9944 65.1353 88.6187 64.8091C88.243 64.4828 87.9536 64.0922 87.7483 63.631C87.543 63.1717 87.4403 62.6648 87.4403 62.1141C87.4403 61.5635 87.543 61.0565 87.7483 60.5973C87.9536 60.138 88.243 59.7454 88.6187 59.4192C88.9944 59.0929 89.446 58.8415 89.9737 58.6607C90.5013 58.4799 91.0843 58.3906 91.7247 58.3906ZM91.7247 60.0238C91.4189 60.0238 91.1336 60.0715 90.8707 60.1671C90.606 60.2627 90.3781 60.3998 90.1831 60.5744C89.988 60.751 89.8341 60.9693 89.7191 61.2269C89.6041 61.4845 89.5466 61.7795 89.5466 62.112C89.5466 62.4445 89.6041 62.7313 89.7191 62.9931C89.8341 63.2548 89.988 63.4731 90.1831 63.6517C90.3781 63.8284 90.606 63.9654 90.8707 64.061C91.1356 64.1566 91.4189 64.2044 91.7247 64.2044C92.0307 64.2044 92.3181 64.1566 92.5849 64.061C92.8519 63.9654 93.0858 63.8305 93.2829 63.6517C93.48 63.4752 93.6381 63.2548 93.7511 62.9931C93.8639 62.7313 93.9235 62.4383 93.9235 62.112C93.9235 61.7858 93.866 61.4845 93.7511 61.2269C93.636 60.9693 93.48 60.751 93.2829 60.5744C93.0858 60.3978 92.8519 60.2607 92.5849 60.1671C92.3181 60.0715 92.0307 60.0238 91.7247 60.0238ZM97.3621 58.5818H100.405L102.552 63.0575H102.583L104.72 58.5818H107.773V65.6465H105.689V60.6077H105.668L103.24 65.6465H101.708L99.2795 60.6077H99.259V65.6465H97.3621V58.5818ZM109.493 58.5818H113.599C114.572 58.5818 115.331 58.802 115.882 59.2446C116.43 59.6871 116.705 60.2815 116.705 61.0316C116.705 61.7816 116.419 62.4195 115.851 62.8622C115.28 63.3047 114.516 63.525 113.558 63.525H111.589V65.6465H109.495V58.5818H109.493ZM111.577 60.1631V61.9666H113.233C113.74 61.9666 114.098 61.8855 114.307 61.7214C114.516 61.5593 114.619 61.3391 114.619 61.0628C114.619 60.7863 114.514 60.5765 114.307 60.4103C114.098 60.244 113.755 60.161 113.274 60.161H111.577V60.1631ZM119.903 58.5506H122.196L125.666 65.6465H123.404L122.851 64.4891H119.098L118.557 65.6465H116.43L119.899 58.5506H119.903ZM120.977 60.5433L119.768 63.0887H122.196L120.997 60.5433H120.977ZM126.676 58.5818H128.76L132.656 62.8455H132.677V58.5818H134.614V65.6465H132.541L128.632 61.2767H128.612V65.6465H126.674V58.5818H126.676ZM135.472 58.5818H137.942L139.944 61.4451L141.956 58.5818H144.291L140.936 63.0575V65.6465H138.831V63.0575L135.475 58.5818H135.472Z" fill="#D31710" />
  </g>
</svg>
